<?xml version="1.0" encoding="UTF-8" standalone="no"?>
<!-- Generator: Adobe Illustrator 19.2.0, SVG Export Plug-In . SVG Version: 6.00 Build 0)  -->

<svg
   xmlns:dc="http://purl.org/dc/elements/1.1/"
   xmlns:cc="http://creativecommons.org/ns#"
   xmlns:rdf="http://www.w3.org/1999/02/22-rdf-syntax-ns#"
   xmlns:svg="http://www.w3.org/2000/svg"
   xmlns="http://www.w3.org/2000/svg"
   xmlns:sodipodi="http://sodipodi.sourceforge.net/DTD/sodipodi-0.dtd"
   xmlns:inkscape="http://www.inkscape.org/namespaces/inkscape"
   version="1.1"
   id="Layer_1"
   x="0px"
   y="0px"
   width="356.89999"
   height="174.2"
   viewBox="0 0 356.90001 174.2"
   enable-background="new 0 0 197.9 112.2"
   xml:space="preserve"
   inkscape:version="0.91 r13725"
   sodipodi:docname="esg-logo.svg"><metadata
     id="metadata21"><rdf:RDF><cc:Work
         rdf:about=""><dc:format>image/svg+xml</dc:format><dc:type
           rdf:resource="http://purl.org/dc/dcmitype/StillImage" /><dc:title /></cc:Work></rdf:RDF></metadata><defs
     id="defs19" /><sodipodi:namedview
     pagecolor="#ffffff"
     bordercolor="#666666"
     borderopacity="1"
     objecttolerance="10"
     gridtolerance="10"
     guidetolerance="10"
     inkscape:pageopacity="0"
     inkscape:pageshadow="2"
     inkscape:window-width="1920"
     inkscape:window-height="1017"
     id="namedview17"
     showgrid="false"
     inkscape:zoom="1.0290387"
     inkscape:cx="-191.05908"
     inkscape:cy="64.576878"
     inkscape:window-x="-8"
     inkscape:window-y="-8"
     inkscape:window-maximized="1"
     inkscape:current-layer="Layer_1" /><text
     xml:space="preserve"
     style="font-style:normal;font-weight:normal;font-size:17.5px;line-height:125%;font-family:sans-serif;letter-spacing:0px;word-spacing:0px;fill:#000000;fill-opacity:1;stroke:none;stroke-width:1px;stroke-linecap:butt;stroke-linejoin:miter;stroke-opacity:1"
     x="8.9329863"
     y="170.76424"
     id="text4149"
     sodipodi:linespacing="125%"><tspan
       sodipodi:role="line"
       id="tspan4151"
       x="8.9329863"
       y="170.76424" /></text>
<text
     xml:space="preserve"
     style="font-style:normal;font-weight:normal;font-size:17.5px;line-height:125%;font-family:sans-serif;letter-spacing:0px;word-spacing:0px;fill:#000000;fill-opacity:1;stroke:none;stroke-width:1px;stroke-linecap:butt;stroke-linejoin:miter;stroke-opacity:1"
     x="6.1843748"
     y="158.39548"
     id="text4153"
     sodipodi:linespacing="125%"><tspan
       sodipodi:role="line"
       id="tspan4155"
       x="6.1843748"
       y="158.39548" /></text>
<g
     id="g3"
     transform="translate(4,36.000334)"><path
       d="m 60.4,106.5 c 0,3.1 -2.6,5.7 -5.7,5.7 l -49,0 C 2.6,112.2 0,109.6 0,106.5 L 0,40.9 c 0,-3.1 2.6,-5.7 5.7,-5.7 l 49.1,0 c 3.1,0 5.7,2.6 5.7,5.7 l 0,65.6 z"
       id="path5"
       inkscape:connector-curvature="0"
       style="fill:#f2aa1e" /><path
       d="m 129.2,106.5 c 0,3.1 -2.6,5.7 -5.7,5.7 l -49.1,0 c -3.1,0 -5.7,-2.6 -5.7,-5.7 l 0,-83.2 c 0,-3.1 2.6,-5.7 5.7,-5.7 l 49.1,0 c 3.1,0 5.7,2.6 5.7,5.7 l 0,83.2 z"
       id="path7"
       inkscape:connector-curvature="0"
       style="fill:#f26426" /><path
       d="m 197.9,106.5 c 0,3.1 -2.6,5.7 -5.7,5.7 l -49.1,0 c -3.1,0 -5.7,-2.6 -5.7,-5.7 l 0,-100.8 C 137.4,2.6 140,0 143.1,0 l 49.1,0 c 3.1,0 5.7,2.6 5.7,5.7 l 0,100.8 z"
       id="path9"
       inkscape:connector-curvature="0"
       style="fill:#ca252c" /><polygon
       points="25.6,90.5 49.8,90.5 49.8,103 10.6,103 10.6,57.4 49.5,57.4 49.5,69.9 25.6,69.9 25.6,74.5 47.9,74.5 47.9,85.5 25.6,85.5 "
       id="polygon11"
       style="fill:#ffffff" /><path
       d="M 76.9,96.1 85,86.4 c 4.9,3.8 10.6,5.3 16,5.3 2.7,0 3.9,-0.7 3.9,-2 l 0,-0.1 c 0,-1.3 -1.4,-2 -6.3,-3 -10.2,-2.1 -19.2,-5 -19.2,-14.7 l 0,-0.1 c 0,-8.7 6.8,-15.4 19.3,-15.4 8.8,0 15.3,2.1 20.6,6.3 L 111.9,73 c -4.3,-3.1 -9.4,-4.5 -13.7,-4.5 -2.3,0 -3.3,0.8 -3.3,1.9 l 0,0.1 c 0,1.2 1.2,2 6.1,2.9 11.7,2.1 19.5,5.5 19.5,14.7 l 0,0.1 c 0,9.6 -7.9,15.4 -20.1,15.4 -9.4,0.2 -17.7,-2.4 -23.5,-7.5 z"
       id="path13"
       inkscape:connector-curvature="0"
       style="fill:#ffffff" /><path
       d="m 143.7,80.3 0,-0.1 c 0,-13.6 10.7,-23.8 25.1,-23.8 7.8,0 14.1,2.6 19.1,6.9 l -8.5,10.3 c -3,-2.5 -6.3,-4 -10.1,-4 -5.9,0 -10.2,4.6 -10.2,10.7 l 0,0.1 c 0,6.4 4.5,10.9 10.9,10.9 2.6,0 4,-0.4 5.2,-1 l 0,-4.6 -2.9,0 c -1.3,0 -2.5,-0.5 -3.5,-1.4 -1,-1 -1.4,-2.2 -1.4,-3.5 l 0,0 c 0,-1.2 0.5,-2.5 1.4,-3.4 1,-1 2.2,-1.4 3.4,-1.4 l 17.2,0 0,21.1 c -4.9,4 -11.9,6.8 -20.1,6.8 -14.2,0.1 -25.6,-9.4 -25.6,-23.6 z"
       id="path15"
       inkscape:connector-curvature="0"
       style="fill:#ffffff" /></g><text
     transform="scale(0.92742921,1.0782494)"
     xml:space="preserve"
     style="font-style:normal;font-weight:normal;font-size:50.66343689px;line-height:125%;font-family:sans-serif;letter-spacing:0px;word-spacing:0px;fill:#ffffff;fill-opacity:1;stroke:none;stroke-width:1px;stroke-linecap:butt;stroke-linejoin:miter;stroke-opacity:1"
     x="1.91625"
     y="159.14954"
     id="text4157"
     sodipodi:linespacing="125%"><tspan
       sodipodi:role="line"
       id="tspan4159"
       x="1.91625"
       y="159.14954"
       style="font-style:normal;font-variant:normal;font-weight:bold;font-stretch:normal;font-size:17.41555786px;font-family:sans-serif;-inkscape-font-specification:'sans-serif Bold'">Enterprise Strategy Group</tspan></text>
<text
     xml:space="preserve"
     style="font-style:normal;font-weight:normal;font-size:22.12717438px;line-height:125%;font-family:sans-serif;letter-spacing:0px;word-spacing:0px;fill:#ffffff;fill-opacity:1;stroke:none;stroke-width:1px;stroke-linecap:butt;stroke-linejoin:miter;stroke-opacity:1"
     x="2.106262"
     y="21.755838"
     id="text4145"
     sodipodi:linespacing="125%"
     transform="scale(0.92023484,1.0866791)"><tspan
       sodipodi:role="line"
       id="tspan4147"
       x="2.106262"
       y="21.755838"
       style="font-style:normal;font-variant:normal;font-weight:bold;font-stretch:normal;font-size:27.65896988px;font-family:sans-serif;-inkscape-font-specification:'sans-serif Bold'">Validated and Powered By:</tspan></text>
<text
     xml:space="preserve"
     style="font-style:normal;font-weight:normal;font-size:30.64686203px;line-height:125%;font-family:sans-serif;letter-spacing:0px;word-spacing:0px;fill:#ffffff;fill-opacity:1;stroke:none;stroke-width:1px;stroke-linecap:butt;stroke-linejoin:miter;stroke-opacity:1"
     x="243.37206"
     y="60.699207"
     id="text4160"
     sodipodi:linespacing="125%"
     transform="scale(0.88633825,1.1282374)"><tspan
       sodipodi:role="line"
       id="tspan4162"
       x="243.37206"
       y="60.699207"
       style="font-size:30.64686203px"><tspan
   style="font-style:normal;font-variant:normal;font-weight:bold;font-stretch:normal;font-size:30.64686203px;font-family:sans-serif;-inkscape-font-specification:'sans-serif Bold'"
   id="tspan4168">E</tspan>conomic</tspan><tspan
       sodipodi:role="line"
       x="243.37206"
       y="101.26248"
       id="tspan4164"
       style="font-size:30.64686203px"><tspan
   style="font-style:normal;font-variant:normal;font-weight:bold;font-stretch:normal;font-size:30.64686203px;font-family:sans-serif;-inkscape-font-specification:'sans-serif Bold'"
   id="tspan4170">V</tspan>alue</tspan><tspan
       sodipodi:role="line"
       x="243.37206"
       y="141.82576"
       id="tspan4166"
       style="font-size:30.64686203px"><tspan
   style="font-style:normal;font-variant:normal;font-weight:bold;font-stretch:normal;font-size:30.64686203px;font-family:sans-serif;-inkscape-font-specification:'sans-serif Bold'"
   id="tspan4172">V</tspan>alidation</tspan></text>
</svg>